<svg width="119" height="90" viewBox="0 0 119 90" fill="none" xmlns="http://www.w3.org/2000/svg">
<g clip-path="url(#clip0_4104_13809)">
<path d="M78.8052 23.6317C78.8052 23.6317 84.7334 11.3109 77.9911 8.75199C77.9911 8.75199 66.8322 4.21887 49.0476 23.9796C49.0476 23.9796 53.6973 6.54279 79.0384 0.0335989C79.0384 0.0335989 93.685 -1.59462 83.8046 17.8182C83.8046 17.8182 82.1764 20.9563 78.8071 23.6299L78.8052 23.6317Z" fill="white"/>
<path d="M78.6886 31.7336C78.6886 31.7336 84.6169 44.0544 77.8745 46.6133C77.8745 46.6133 66.7157 51.1464 48.931 31.3857C48.931 31.3857 53.5807 48.8225 78.9218 55.3317C78.9218 55.3317 93.5684 56.9599 83.688 37.5471C83.688 37.5471 82.0598 34.4091 78.6905 31.7354L78.6886 31.7336Z" fill="white"/>
<path d="M77.1789 32.2339C79.7469 32.2339 81.8286 30.1522 81.8286 27.5843C81.8286 25.0163 79.7469 22.9346 77.1789 22.9346C74.611 22.9346 72.5292 25.0163 72.5292 27.5843C72.5292 30.1522 74.611 32.2339 77.1789 32.2339Z" fill="white"/>
<path d="M40.1589 23.6317C40.1589 23.6317 34.2307 11.3109 40.973 8.75199C40.973 8.75199 52.1319 4.21887 69.9165 23.9796C69.9165 23.9796 65.2668 6.54279 39.9257 0.0335989C39.9257 0.0335989 25.2791 -1.59462 35.1595 17.8182C35.1595 17.8182 36.7877 20.9563 40.157 23.6299L40.1589 23.6317Z" fill="white"/>
<path d="M40.2756 31.7336C40.2756 31.7336 34.3474 44.0544 41.0897 46.6133C41.0897 46.6133 52.2486 51.1464 70.0332 31.3857C70.0332 31.3857 65.3835 48.8225 40.0424 55.3317C40.0424 55.3317 25.3958 56.9599 35.2762 37.5471C35.2762 37.5471 36.9044 34.4091 40.2737 31.7354L40.2756 31.7336Z" fill="white"/>
<path d="M41.7872 32.2339C44.3552 32.2339 46.4369 30.1522 46.4369 27.5843C46.4369 25.0163 44.3552 22.9346 41.7872 22.9346C39.2193 22.9346 37.1375 25.0163 37.1375 27.5843C37.1375 30.1522 39.2193 32.2339 41.7872 32.2339Z" fill="white"/>
<path d="M12.2792 75.7644H0.12674V59.5303H12.2792V62.4981H3.16485V66.2319H11.9554V69.085H3.16485V72.7503H12.2792V75.7644Z" fill="white"/>
<path d="M25.8232 64.3296H28.5375V75.7642H25.8713L25.7325 74.0952C25.0831 75.4404 23.2976 76.0898 22.0209 76.1139C18.6349 76.1379 16.1297 74.049 16.1297 70.0376C16.1297 66.0263 18.7497 64.0299 22.0894 64.0539C23.6195 64.0539 25.0812 64.7737 25.7307 65.9097L25.8232 64.3333V64.3296ZM18.9587 70.0358C18.9587 72.2154 20.4667 73.5143 22.3447 73.5143C26.7983 73.5143 26.7983 66.5795 22.3447 66.5795C20.4667 66.5795 18.9587 67.8543 18.9587 70.0358Z" fill="white"/>
<path d="M40.7101 67.3676C39.8979 66.6016 38.9709 66.3462 37.8811 66.3462C36.536 66.3462 35.794 66.7644 35.794 67.4823C35.794 68.2002 36.4675 68.6424 37.9274 68.7349C40.0847 68.8737 42.8213 69.3603 42.8213 72.3984C42.8213 74.417 41.1745 76.1563 37.9051 76.1563C36.0956 76.1563 34.2879 75.8547 32.6171 74.1154L34.0085 72.0968C34.8208 73.0016 36.6766 73.6732 37.9514 73.6973C39.019 73.7213 40.0163 73.1644 40.0163 72.3281C40.0163 71.5399 39.3668 71.2142 37.7442 71.1217C35.5868 70.9589 33.0131 70.1707 33.0131 67.5729C33.0131 64.9752 35.7496 64.002 37.8367 64.002C39.6222 64.002 40.9673 64.3498 42.2902 65.5099L40.7138 67.3657L40.7101 67.3676Z" fill="white"/>
<path d="M58.4746 64.3301L51.4936 80.542H48.3851L50.5185 75.5796L45.9502 64.3319H49.2436L50.9829 69.2721L52.0727 72.4952L53.255 69.3406L55.3421 64.3319H58.4727L58.4746 64.3301Z" fill="white"/>
<path d="M74.4515 75.7644H73.1989L71.3431 70.7557L69.9517 66.3022L68.514 70.778L66.6582 75.7644H65.4056L61.3239 64.3076H62.5766L66.0328 74.4433L69.5354 64.3076H70.3476L73.8261 74.4433L77.2583 64.3076H78.5109L74.4515 75.7644Z" fill="white"/>
<path d="M82.1503 70.0583C82.1503 66.417 84.7481 64.0986 87.9712 64.0986C91.1943 64.0986 93.7921 66.417 93.7921 70.0583C93.7921 73.6996 91.1943 75.9255 87.9712 75.9255C84.7481 75.9255 82.1503 73.6996 82.1503 70.0583ZM92.6801 70.0583C92.6801 67.0905 90.5689 65.1644 87.9712 65.1644C85.3734 65.1644 83.2623 67.0886 83.2623 70.0583C83.2623 73.028 85.3734 74.8134 87.9712 74.8134C90.5689 74.8134 92.6801 73.028 92.6801 70.0583Z" fill="white"/>
<path d="M99.798 64.3077L99.8442 66.3485C100.564 64.7943 102.187 64.1911 103.648 64.1911C104.507 64.1671 105.341 64.4002 106.107 64.8646L105.597 65.7916C104.994 65.4197 104.322 65.2587 103.648 65.2587C101.515 65.2828 99.8683 66.998 99.8683 69.0851V75.7645H98.7322V64.3077H99.7998H99.798Z" fill="white"/>
<path d="M111.255 59.5303V69.3181L116.659 64.3095H118.167V64.3557L112.369 69.7141L118.839 75.6978V75.7681H117.401L111.255 70.1563V75.7681H110.141V59.534H111.255V59.5303Z" fill="white"/>
</g>
<defs>
<clipPath id="clip0_4104_13809">
<rect width="118.71" height="90" fill="white" transform="translate(0.12674)"/>
</clipPath>
</defs>
</svg>
