<svg width="209" height="159" viewBox="0 0 209 159" fill="none" xmlns="http://www.w3.org/2000/svg">
<g clip-path="url(#clip0_47_312)">
<g clip-path="url(#clip1_47_312)">
<path d="M138.543 41.6057C138.543 41.6057 148.981 19.9138 137.11 15.4086C137.11 15.4086 117.464 7.42769 86.1526 42.2181C86.1526 42.2181 94.3388 11.5192 138.954 0.0591537C138.954 0.0591537 164.741 -2.80747 147.345 31.3705C147.345 31.3705 144.479 36.8953 138.547 41.6025L138.543 41.6057Z" fill="#262261"/>
<path d="M138.315 55.8702C138.315 55.8702 148.752 77.5621 136.882 82.0673C136.882 82.0673 117.235 90.0483 85.924 55.2578C85.924 55.2578 94.1101 85.9568 138.725 97.4168C138.725 97.4168 164.512 100.283 147.117 66.1054C147.117 66.1054 144.25 60.5806 138.318 55.8735L138.315 55.8702Z" fill="#262261"/>
<path d="M135.68 56.7513C140.201 56.7513 143.866 53.0862 143.866 48.5651C143.866 44.044 140.201 40.3789 135.68 40.3789C131.159 40.3789 127.494 44.044 127.494 48.5651C127.494 53.0862 131.159 56.7513 135.68 56.7513Z" fill="#58595B"/>
<path d="M70.48 41.6057C70.48 41.6057 60.0428 19.9138 71.9133 15.4086C71.9133 15.4086 91.5594 7.42769 122.871 42.2181C122.871 42.2181 114.685 11.5192 70.0695 0.0591537C70.0695 0.0591537 44.2829 -2.80747 61.6781 31.3705C61.6781 31.3705 64.5447 36.8953 70.4767 41.6025L70.48 41.6057Z" fill="#262261"/>
<path d="M70.6852 55.8702C70.6852 55.8702 60.248 77.5621 72.1185 82.0673C72.1185 82.0673 91.7646 90.0483 123.076 55.2578C123.076 55.2578 114.89 85.9568 70.2747 97.4168C70.2747 97.4168 44.4881 100.283 61.8833 66.1054C61.8833 66.1054 64.7499 60.5806 70.6819 55.8735L70.6852 55.8702Z" fill="#262261"/>
<path d="M73.3466 56.7513C77.8677 56.7513 81.5328 53.0862 81.5328 48.5651C81.5328 44.044 77.8677 40.3789 73.3466 40.3789C68.8255 40.3789 65.1604 44.044 65.1604 48.5651C65.1604 53.0862 68.8255 56.7513 73.3466 56.7513Z" fill="#58595B"/>
<path d="M21.3955 133.39H0V104.809H21.3955V110.034H5.34887V116.607H20.8254V121.63H5.34887V128.084H21.3955V133.39Z" fill="#58595B"/>
<path d="M45.2406 113.259H50.0194V133.391H45.3253L45.081 130.452C43.9376 132.821 40.7941 133.964 38.5464 134.006C32.5851 134.049 28.1744 130.371 28.1744 123.309C28.1744 116.246 32.7871 112.731 38.6669 112.774C41.3609 112.774 43.9344 114.041 45.0778 116.041L45.2406 113.266V113.259ZM33.1552 123.305C33.1552 127.143 35.8101 129.43 39.1165 129.43C46.9574 129.43 46.9574 117.22 39.1165 117.22C35.8101 117.22 33.1552 119.465 33.1552 123.305Z" fill="#58595B"/>
<path d="M71.4507 118.609C70.0207 117.26 68.3886 116.811 66.4699 116.811C64.1017 116.811 62.7955 117.547 62.7955 118.811C62.7955 120.075 63.9812 120.853 66.5514 121.016C70.3497 121.261 75.1676 122.117 75.1676 127.466C75.1676 131.02 72.2683 134.082 66.5123 134.082C63.3264 134.082 60.1438 133.551 57.2023 130.489L59.6519 126.935C61.082 128.528 64.3493 129.711 66.5937 129.753C68.4733 129.795 70.2291 128.815 70.2291 127.342C70.2291 125.955 69.0857 125.381 66.2289 125.219C62.4306 124.932 57.8994 123.544 57.8994 118.971C57.8994 114.397 62.7173 112.684 66.3918 112.684C69.5353 112.684 71.9035 113.296 74.2326 115.338L71.4572 118.606L71.4507 118.609Z" fill="#58595B"/>
<path d="M102.726 113.258L90.4356 141.8H84.9629L88.7189 133.064L80.676 113.261H86.4744L89.5365 121.959L91.4552 127.633L93.5368 122.079L97.2113 113.261H102.723L102.726 113.258Z" fill="#58595B"/>
<path d="M130.855 133.389H128.65L125.382 124.571L122.933 116.73L120.402 124.61L117.134 133.389H114.929L107.743 113.219H109.948L116.033 131.064L122.2 113.219H123.63L129.754 131.064L135.797 113.219H138.002L130.855 133.389Z" fill="#58595B"/>
<path d="M144.41 123.344C144.41 116.933 148.983 112.852 154.658 112.852C160.332 112.852 164.906 116.933 164.906 123.344C164.906 129.755 160.332 133.674 154.658 133.674C148.983 133.674 144.41 129.755 144.41 123.344ZM162.948 123.344C162.948 118.119 159.231 114.728 154.658 114.728C150.084 114.728 146.367 118.116 146.367 123.344C146.367 128.572 150.084 131.716 154.658 131.716C159.231 131.716 162.948 128.572 162.948 123.344Z" fill="#58595B"/>
<path d="M175.48 113.22L175.561 116.813C176.829 114.077 179.685 113.015 182.259 113.015C183.77 112.972 185.24 113.383 186.588 114.2L185.689 115.832C184.627 115.178 183.445 114.894 182.259 114.894C178.503 114.937 175.604 117.956 175.604 121.631V133.391H173.604V113.22H175.483H175.48Z" fill="#58595B"/>
<path d="M195.651 104.809V122.041L205.166 113.223H207.821V113.304L197.612 122.738L209.003 133.273V133.397H206.472L195.651 123.517V133.397H193.69V104.815H195.651V104.809Z" fill="#58595B"/>
</g>
</g>
<defs>
<clipPath id="clip0_47_312">
<rect width="209" height="158.453" fill="white"/>
</clipPath>
<clipPath id="clip1_47_312">
<rect width="209" height="158.453" fill="white"/>
</clipPath>
</defs>
</svg>
